<mxfile host="Electron" agent="Mozilla/5.0 (X11; Linux x86_64) AppleWebKit/537.36 (KHTML, like Gecko) draw.io/26.0.4 Chrome/128.0.6613.186 Electron/32.2.5 Safari/537.36" version="26.0.4">
  <diagram name="Page-1" id="mw_ZvagViDS2W89REuIZ">
    <mxGraphModel dx="1114" dy="2127" grid="1" gridSize="10" guides="1" tooltips="1" connect="1" arrows="1" fold="1" page="1" pageScale="1" pageWidth="850" pageHeight="1100" math="0" shadow="0">
      <root>
        <mxCell id="0" />
        <mxCell id="1" parent="0" />
        <mxCell id="9VLM2Cj5hEK0_qIQIp7Y-13" value="Real-time" style="edgeStyle=orthogonalEdgeStyle;rounded=0;orthogonalLoop=1;jettySize=auto;html=1;" edge="1" parent="1" source="9VLM2Cj5hEK0_qIQIp7Y-1" target="9VLM2Cj5hEK0_qIQIp7Y-3">
          <mxGeometry relative="1" as="geometry" />
        </mxCell>
        <mxCell id="9VLM2Cj5hEK0_qIQIp7Y-1" value="IoT Devices" style="sketch=0;outlineConnect=0;fontColor=#232F3E;gradientColor=none;fillColor=#7AA116;strokeColor=none;dashed=0;verticalLabelPosition=top;verticalAlign=bottom;align=center;html=1;fontSize=12;fontStyle=0;aspect=fixed;pointerEvents=1;shape=mxgraph.aws4.lightbulb;labelPosition=center;" vertex="1" parent="1">
          <mxGeometry x="140" y="-78" width="78" height="78" as="geometry" />
        </mxCell>
        <mxCell id="9VLM2Cj5hEK0_qIQIp7Y-15" style="edgeStyle=orthogonalEdgeStyle;rounded=0;orthogonalLoop=1;jettySize=auto;html=1;" edge="1" parent="1" source="9VLM2Cj5hEK0_qIQIp7Y-2" target="9VLM2Cj5hEK0_qIQIp7Y-5">
          <mxGeometry relative="1" as="geometry" />
        </mxCell>
        <mxCell id="9VLM2Cj5hEK0_qIQIp7Y-21" style="edgeStyle=orthogonalEdgeStyle;rounded=0;orthogonalLoop=1;jettySize=auto;html=1;startArrow=classic;startFill=1;" edge="1" parent="1" source="9VLM2Cj5hEK0_qIQIp7Y-2" target="9VLM2Cj5hEK0_qIQIp7Y-6">
          <mxGeometry relative="1" as="geometry" />
        </mxCell>
        <mxCell id="9VLM2Cj5hEK0_qIQIp7Y-2" value="Amazon Kinesis Data Firehose" style="sketch=0;points=[[0,0,0],[0.25,0,0],[0.5,0,0],[0.75,0,0],[1,0,0],[0,1,0],[0.25,1,0],[0.5,1,0],[0.75,1,0],[1,1,0],[0,0.25,0],[0,0.5,0],[0,0.75,0],[1,0.25,0],[1,0.5,0],[1,0.75,0]];outlineConnect=0;fontColor=#232F3E;fillColor=#8C4FFF;strokeColor=#ffffff;dashed=0;verticalLabelPosition=top;verticalAlign=bottom;align=center;html=1;fontSize=12;fontStyle=0;aspect=fixed;shape=mxgraph.aws4.resourceIcon;resIcon=mxgraph.aws4.kinesis_data_firehose;labelPosition=center;" vertex="1" parent="1">
          <mxGeometry x="340" y="130" width="78" height="78" as="geometry" />
        </mxCell>
        <mxCell id="9VLM2Cj5hEK0_qIQIp7Y-14" style="edgeStyle=orthogonalEdgeStyle;rounded=0;orthogonalLoop=1;jettySize=auto;html=1;" edge="1" parent="1" source="9VLM2Cj5hEK0_qIQIp7Y-3" target="9VLM2Cj5hEK0_qIQIp7Y-2">
          <mxGeometry relative="1" as="geometry" />
        </mxCell>
        <mxCell id="9VLM2Cj5hEK0_qIQIp7Y-3" value="Amazon Kinesis Data Streams" style="sketch=0;points=[[0,0,0],[0.25,0,0],[0.5,0,0],[0.75,0,0],[1,0,0],[0,1,0],[0.25,1,0],[0.5,1,0],[0.75,1,0],[1,1,0],[0,0.25,0],[0,0.5,0],[0,0.75,0],[1,0.25,0],[1,0.5,0],[1,0.75,0]];outlineConnect=0;fontColor=#232F3E;fillColor=#8C4FFF;strokeColor=#ffffff;dashed=0;verticalLabelPosition=bottom;verticalAlign=top;align=center;html=1;fontSize=12;fontStyle=0;aspect=fixed;shape=mxgraph.aws4.resourceIcon;resIcon=mxgraph.aws4.kinesis_data_streams;" vertex="1" parent="1">
          <mxGeometry x="140" y="130" width="78" height="78" as="geometry" />
        </mxCell>
        <mxCell id="9VLM2Cj5hEK0_qIQIp7Y-16" style="edgeStyle=orthogonalEdgeStyle;rounded=0;orthogonalLoop=1;jettySize=auto;html=1;" edge="1" parent="1" source="9VLM2Cj5hEK0_qIQIp7Y-5" target="9VLM2Cj5hEK0_qIQIp7Y-12">
          <mxGeometry relative="1" as="geometry" />
        </mxCell>
        <mxCell id="9VLM2Cj5hEK0_qIQIp7Y-5" value="Amazon S3" style="sketch=0;points=[[0,0,0],[0.25,0,0],[0.5,0,0],[0.75,0,0],[1,0,0],[0,1,0],[0.25,1,0],[0.5,1,0],[0.75,1,0],[1,1,0],[0,0.25,0],[0,0.5,0],[0,0.75,0],[1,0.25,0],[1,0.5,0],[1,0.75,0]];outlineConnect=0;fontColor=#232F3E;fillColor=#7AA116;strokeColor=#ffffff;dashed=0;verticalLabelPosition=bottom;verticalAlign=top;align=center;html=1;fontSize=12;fontStyle=0;aspect=fixed;shape=mxgraph.aws4.resourceIcon;resIcon=mxgraph.aws4.s3;" vertex="1" parent="1">
          <mxGeometry x="540" y="130" width="78" height="78" as="geometry" />
        </mxCell>
        <mxCell id="9VLM2Cj5hEK0_qIQIp7Y-6" value="AWS Lambda" style="sketch=0;points=[[0,0,0],[0.25,0,0],[0.5,0,0],[0.75,0,0],[1,0,0],[0,1,0],[0.25,1,0],[0.5,1,0],[0.75,1,0],[1,1,0],[0,0.25,0],[0,0.5,0],[0,0.75,0],[1,0.25,0],[1,0.5,0],[1,0.75,0]];outlineConnect=0;fontColor=#232F3E;fillColor=#ED7100;strokeColor=#ffffff;dashed=0;verticalLabelPosition=bottom;verticalAlign=top;align=center;html=1;fontSize=12;fontStyle=0;aspect=fixed;shape=mxgraph.aws4.resourceIcon;resIcon=mxgraph.aws4.lambda;" vertex="1" parent="1">
          <mxGeometry x="340" y="310" width="78" height="78" as="geometry" />
        </mxCell>
        <mxCell id="9VLM2Cj5hEK0_qIQIp7Y-7" value="Amazon QuickSight" style="sketch=0;points=[[0,0,0],[0.25,0,0],[0.5,0,0],[0.75,0,0],[1,0,0],[0,1,0],[0.25,1,0],[0.5,1,0],[0.75,1,0],[1,1,0],[0,0.25,0],[0,0.5,0],[0,0.75,0],[1,0.25,0],[1,0.5,0],[1,0.75,0]];outlineConnect=0;fontColor=#232F3E;fillColor=#8C4FFF;strokeColor=#ffffff;dashed=0;verticalLabelPosition=bottom;verticalAlign=top;align=center;html=1;fontSize=12;fontStyle=0;aspect=fixed;shape=mxgraph.aws4.resourceIcon;resIcon=mxgraph.aws4.quicksight;" vertex="1" parent="1">
          <mxGeometry x="1140" y="310" width="78" height="78" as="geometry" />
        </mxCell>
        <mxCell id="9VLM2Cj5hEK0_qIQIp7Y-23" style="edgeStyle=orthogonalEdgeStyle;rounded=0;orthogonalLoop=1;jettySize=auto;html=1;dashed=1;" edge="1" parent="1" source="9VLM2Cj5hEK0_qIQIp7Y-8" target="9VLM2Cj5hEK0_qIQIp7Y-7">
          <mxGeometry relative="1" as="geometry" />
        </mxCell>
        <mxCell id="9VLM2Cj5hEK0_qIQIp7Y-8" value="Amazon Redshift" style="sketch=0;points=[[0,0,0],[0.25,0,0],[0.5,0,0],[0.75,0,0],[1,0,0],[0,1,0],[0.25,1,0],[0.5,1,0],[0.75,1,0],[1,1,0],[0,0.25,0],[0,0.5,0],[0,0.75,0],[1,0.25,0],[1,0.5,0],[1,0.75,0]];outlineConnect=0;fontColor=#232F3E;fillColor=#8C4FFF;strokeColor=#ffffff;dashed=0;verticalLabelPosition=bottom;verticalAlign=top;align=center;html=1;fontSize=12;fontStyle=0;aspect=fixed;shape=mxgraph.aws4.resourceIcon;resIcon=mxgraph.aws4.redshift;" vertex="1" parent="1">
          <mxGeometry x="1340" y="310" width="78" height="78" as="geometry" />
        </mxCell>
        <mxCell id="9VLM2Cj5hEK0_qIQIp7Y-19" style="edgeStyle=orthogonalEdgeStyle;rounded=0;orthogonalLoop=1;jettySize=auto;html=1;" edge="1" parent="1" source="9VLM2Cj5hEK0_qIQIp7Y-9" target="9VLM2Cj5hEK0_qIQIp7Y-10">
          <mxGeometry relative="1" as="geometry" />
        </mxCell>
        <mxCell id="9VLM2Cj5hEK0_qIQIp7Y-9" value="Amazon Athena" style="sketch=0;points=[[0,0,0],[0.25,0,0],[0.5,0,0],[0.75,0,0],[1,0,0],[0,1,0],[0.25,1,0],[0.5,1,0],[0.75,1,0],[1,1,0],[0,0.25,0],[0,0.5,0],[0,0.75,0],[1,0.25,0],[1,0.5,0],[1,0.75,0]];outlineConnect=0;fontColor=#232F3E;fillColor=#8C4FFF;strokeColor=#ffffff;dashed=0;verticalLabelPosition=bottom;verticalAlign=top;align=center;html=1;fontSize=12;fontStyle=0;aspect=fixed;shape=mxgraph.aws4.resourceIcon;resIcon=mxgraph.aws4.athena;" vertex="1" parent="1">
          <mxGeometry x="1140" y="130" width="78" height="78" as="geometry" />
        </mxCell>
        <mxCell id="9VLM2Cj5hEK0_qIQIp7Y-22" style="edgeStyle=orthogonalEdgeStyle;rounded=0;orthogonalLoop=1;jettySize=auto;html=1;dashed=1;" edge="1" parent="1" source="9VLM2Cj5hEK0_qIQIp7Y-10" target="9VLM2Cj5hEK0_qIQIp7Y-8">
          <mxGeometry relative="1" as="geometry" />
        </mxCell>
        <mxCell id="9VLM2Cj5hEK0_qIQIp7Y-24" style="edgeStyle=orthogonalEdgeStyle;rounded=0;orthogonalLoop=1;jettySize=auto;html=1;dashed=1;" edge="1" parent="1" source="9VLM2Cj5hEK0_qIQIp7Y-10" target="9VLM2Cj5hEK0_qIQIp7Y-7">
          <mxGeometry relative="1" as="geometry">
            <Array as="points">
              <mxPoint x="1360" y="260" />
              <mxPoint x="1179" y="260" />
            </Array>
          </mxGeometry>
        </mxCell>
        <mxCell id="9VLM2Cj5hEK0_qIQIp7Y-10" value="Amazon S3" style="sketch=0;points=[[0,0,0],[0.25,0,0],[0.5,0,0],[0.75,0,0],[1,0,0],[0,1,0],[0.25,1,0],[0.5,1,0],[0.75,1,0],[1,1,0],[0,0.25,0],[0,0.5,0],[0,0.75,0],[1,0.25,0],[1,0.5,0],[1,0.75,0]];outlineConnect=0;fontColor=#232F3E;fillColor=#7AA116;strokeColor=#ffffff;dashed=0;verticalLabelPosition=top;verticalAlign=bottom;align=center;html=1;fontSize=12;fontStyle=0;aspect=fixed;shape=mxgraph.aws4.resourceIcon;resIcon=mxgraph.aws4.s3;labelPosition=center;" vertex="1" parent="1">
          <mxGeometry x="1340" y="130" width="78" height="78" as="geometry" />
        </mxCell>
        <mxCell id="9VLM2Cj5hEK0_qIQIp7Y-18" style="edgeStyle=orthogonalEdgeStyle;rounded=0;orthogonalLoop=1;jettySize=auto;html=1;" edge="1" parent="1" source="9VLM2Cj5hEK0_qIQIp7Y-11" target="9VLM2Cj5hEK0_qIQIp7Y-9">
          <mxGeometry relative="1" as="geometry" />
        </mxCell>
        <mxCell id="9VLM2Cj5hEK0_qIQIp7Y-11" value="AWS Lambda" style="sketch=0;points=[[0,0,0],[0.25,0,0],[0.5,0,0],[0.75,0,0],[1,0,0],[0,1,0],[0.25,1,0],[0.5,1,0],[0.75,1,0],[1,1,0],[0,0.25,0],[0,0.5,0],[0,0.75,0],[1,0.25,0],[1,0.5,0],[1,0.75,0]];outlineConnect=0;fontColor=#232F3E;fillColor=#ED7100;strokeColor=#ffffff;dashed=0;verticalLabelPosition=bottom;verticalAlign=top;align=center;html=1;fontSize=12;fontStyle=0;aspect=fixed;shape=mxgraph.aws4.resourceIcon;resIcon=mxgraph.aws4.lambda;" vertex="1" parent="1">
          <mxGeometry x="940" y="130" width="78" height="78" as="geometry" />
        </mxCell>
        <mxCell id="9VLM2Cj5hEK0_qIQIp7Y-17" style="edgeStyle=orthogonalEdgeStyle;rounded=0;orthogonalLoop=1;jettySize=auto;html=1;" edge="1" parent="1" source="9VLM2Cj5hEK0_qIQIp7Y-12" target="9VLM2Cj5hEK0_qIQIp7Y-11">
          <mxGeometry relative="1" as="geometry" />
        </mxCell>
        <mxCell id="9VLM2Cj5hEK0_qIQIp7Y-12" value="Amazon SQS&lt;div&gt;(optional)&lt;/div&gt;" style="sketch=0;points=[[0,0,0],[0.25,0,0],[0.5,0,0],[0.75,0,0],[1,0,0],[0,1,0],[0.25,1,0],[0.5,1,0],[0.75,1,0],[1,1,0],[0,0.25,0],[0,0.5,0],[0,0.75,0],[1,0.25,0],[1,0.5,0],[1,0.75,0]];outlineConnect=0;fontColor=#232F3E;fillColor=#E7157B;strokeColor=#ffffff;dashed=0;verticalLabelPosition=bottom;verticalAlign=top;align=center;html=1;fontSize=12;fontStyle=0;aspect=fixed;shape=mxgraph.aws4.resourceIcon;resIcon=mxgraph.aws4.sqs;" vertex="1" parent="1">
          <mxGeometry x="740" y="130" width="78" height="78" as="geometry" />
        </mxCell>
        <mxCell id="9VLM2Cj5hEK0_qIQIp7Y-20" value="&amp;nbsp;Pull data&amp;nbsp;" style="edgeStyle=orthogonalEdgeStyle;rounded=0;orthogonalLoop=1;jettySize=auto;html=1;entryX=0.5;entryY=0;entryDx=0;entryDy=0;entryPerimeter=0;" edge="1" parent="1" source="9VLM2Cj5hEK0_qIQIp7Y-5" target="9VLM2Cj5hEK0_qIQIp7Y-9">
          <mxGeometry relative="1" as="geometry">
            <Array as="points">
              <mxPoint x="579" y="-30" />
              <mxPoint x="1179" y="-30" />
            </Array>
          </mxGeometry>
        </mxCell>
      </root>
    </mxGraphModel>
  </diagram>
</mxfile>
